HIERARCHY
ROOT Hips
{
	OFFSET -3.958830 18.904000 13.208200
	CHANNELS 6 Xposition Yposition Zposition Zrotation Yrotation Xrotation 
	JOINT LHipJoint
	{
		OFFSET 0.000000 0.000000 0.000000
		CHANNELS 3 Zrotation Yrotation Xrotation
		JOINT LeftUpLeg
		{
			OFFSET 1.800000 -1.400000 0.085000
			CHANNELS 3 Zrotation Yrotation Xrotation
			JOINT LeftLeg
			{
				OFFSET 2.215000 -6.000000 0.000000
				CHANNELS 3 Zrotation Yrotation Xrotation
				JOINT LeftFoot
				{
					OFFSET 2.500000 -6.900000 0.000000
					CHANNELS 3 Zrotation Yrotation Xrotation
					JOINT LeftToeBase
					{
						OFFSET 0.200000 -0.500000 1.950000
						CHANNELS 3 Zrotation Yrotation Xrotation
						End Site
						{
							OFFSET 0.000000 0.000000 0.000000
						}
					}
				}
			}
		}
	}
	JOINT RHipJoint
	{
		OFFSET 0.000000 0.000000 0.000000
		CHANNELS 3 Zrotation Yrotation Xrotation
		JOINT RightUpLeg
		{
			OFFSET -1.800000 -1.400000 0.085000
			CHANNELS 3 Zrotation Yrotation Xrotation
			JOINT RightLeg
			{
				OFFSET -2.215000 -6.000000 0.000000
				CHANNELS 3 Zrotation Yrotation Xrotation
				JOINT RightFoot
				{
					OFFSET -2.500000 -6.900000 0.000000
					CHANNELS 3 Zrotation Yrotation Xrotation
					JOINT RightToeBase
					{
						OFFSET -0.200000 -0.500000 1.950000
						CHANNELS 3 Zrotation Yrotation Xrotation
						End Site
						{
							OFFSET 0.000000 0.000000 0.000000
						}
					}
				}
			}
		}
	}
	JOINT LowerBack
	{
		OFFSET 0.000000 0.000000 0.000000
		CHANNELS 3 Zrotation Yrotation Xrotation
		JOINT Spine
		{
			OFFSET -0.087000 1.940000 -0.288900
			CHANNELS 3 Zrotation Yrotation Xrotation
			JOINT Spine1
			{
				OFFSET 0.000000 1.950000 0.060000
				CHANNELS 3 Zrotation Yrotation Xrotation
				JOINT Neck
				{
					OFFSET 0.000000 0.000000 0.000000
					CHANNELS 3 Zrotation Yrotation Xrotation
					JOINT Neck1
					{
						OFFSET 0.000000 1.600000 0.340000
						CHANNELS 3 Zrotation Yrotation Xrotation
						JOINT Head
						{
							OFFSET 0.000000 1.667000 -0.240000
							CHANNELS 3 Zrotation Yrotation Xrotation
							End Site
							{
								OFFSET 0.000000 0.000000 0.000000
							}
						}
					}
				}
				JOINT LeftShoulder
				{
					OFFSET 0.000000 0.000000 0.000000
					CHANNELS 3 Zrotation Yrotation Xrotation
					JOINT LeftArm
					{
						OFFSET 2.700000 1.550000 -0.730000
						CHANNELS 3 Zrotation Yrotation Xrotation
						JOINT LeftForeArm
						{
							OFFSET 5.450000 0.000000 0.000000
							CHANNELS 3 Zrotation Yrotation Xrotation
							JOINT LeftHand
							{
								OFFSET 3.450000 0.000000 0.000000
								CHANNELS 3 Zrotation Yrotation Xrotation
								JOINT LeftHandIndex1
								{
									OFFSET 0.750000 0.000000 0.000000
									CHANNELS 3 Zrotation Yrotation Xrotation
									End Site
									{
										OFFSET 0.000000 0.000000 0.000000
									}
								}
							}
						}
					}
				}
				JOINT RightShoulder
				{
					OFFSET 0.000000 0.000000 0.000000
					CHANNELS 3 Zrotation Yrotation Xrotation
					JOINT RightArm
					{
						OFFSET -2.700000 1.550000 -0.730000
						CHANNELS 3 Zrotation Yrotation Xrotation
						JOINT RightForeArm
						{
							OFFSET -5.450000 0.000000 0.000000
							CHANNELS 3 Zrotation Yrotation Xrotation
							JOINT RightHand
							{
								OFFSET -3.450000 0.000000 0.000000
								CHANNELS 3 Zrotation Yrotation Xrotation
								JOINT RightHandIndex1
								{
									OFFSET -0.750000 0.000000 0.000000
									CHANNELS 3 Zrotation Yrotation Xrotation
									End Site
									{
										OFFSET 0.000000 0.000000 0.000000
									}
								}
							}
						}
					}
				}
			}
		}
	}
}
MOTION
Frames: 10
Frame Time: 0.016667
-2.083430 17.557210 0.275930 -6.222413 35.890361 -5.824655 -15.227348 13.236128 2.371017 25.675070 -2.858720 -5.923061 -7.062778 11.920328 32.790122 -0.114875 8.586163 1.597879 -0.091470 -0.155820 -0.378350 18.326169 -9.979424 3.306474 -11.868850 2.931196 -39.863564 4.977897 -9.343868 37.112722 -0.254089 -5.500720 2.242252 0.120190 0.843440 0.178600 -4.407647 -2.213929 -7.892154 15.001842 -12.598725 20.845094 -12.375970 -8.497896 19.570331 3.428005 -2.206944 -10.602818 -7.567133 -1.206548 38.940446 4.057070 -8.519530 -9.774300 14.450168 -23.385209 4.011883 -4.745705 -27.987750 -5.512976 46.427280 -35.226665 -17.642045 -4.123558 2.722549 0.338370 0.343580 -0.239750 0.174280 -20.853492 21.179546 4.135500 -9.060074 22.443397 -8.097590 -38.317983 32.556046 -11.074029 1.828242 -1.415085 -0.432420 0.650940 0.465780 0.120190 
-2.095600 17.550350 0.287860 -6.117963 35.873789 -6.030577 -15.249975 13.301869 2.414546 25.904697 -3.246742 -5.423319 -7.162142 11.969491 32.990163 -0.115859 8.678549 1.554158 -0.099430 -0.179330 -0.351090 18.295192 -9.948083 3.273862 -11.448964 2.678943 -40.040869 4.300372 -9.317173 37.922455 -0.271705 -5.574770 2.200609 0.105550 0.824520 0.195990 -4.303901 -2.419302 -7.917378 14.158052 -12.267877 21.707797 -10.696094 -8.670318 19.554591 2.618415 -1.780457 -10.790207 -7.031860 -1.454680 39.174904 3.495950 -8.127800 -9.881310 15.467809 -23.090329 3.200794 -2.438876 -28.477088 -4.533078 39.212203 -30.582468 -13.015502 -4.158860 2.782285 0.357360 0.343720 -0.226390 0.146860 -20.239983 20.681082 4.933784 -7.170793 20.266100 -9.726169 -47.419795 34.853671 -15.554010 1.802359 -1.407407 -0.432820 0.633830 0.477200 0.099600 
-2.104440 17.536740 0.307570 -6.077654 36.154610 -6.289902 -15.271226 13.414216 2.474167 26.235489 -3.932667 -4.619919 -7.249953 11.927138 32.970581 -0.156012 8.787723 1.487179 -0.187240 -0.297650 -0.375370 18.260394 -9.914932 3.189567 -10.781858 2.092446 -40.254965 3.209151 -9.290315 38.935284 -0.249167 -5.668259 2.156704 0.050560 0.828320 0.199410 -4.201439 -2.756801 -7.926657 13.318554 -12.210821 22.723139 -8.505105 -9.376595 19.556064 1.202895 -1.485766 -11.449698 -7.045959 -1.367896 39.831730 3.219340 -7.717430 -9.232680 16.920855 -22.884611 2.265961 1.242234 -28.595086 -2.622352 29.119385 -21.396057 -7.263421 -4.277040 2.774382 0.389430 0.360140 -0.247420 0.074570 -18.953924 20.089699 6.150892 -4.963430 16.777294 -11.647336 -61.282733 36.195115 -22.614263 1.785107 -1.347922 -0.471900 0.617590 0.553110 0.063820 
-2.102310 17.522330 0.326380 -6.111245 36.576626 -6.430843 -15.283374 13.533470 2.483995 26.315520 -4.507761 -3.693438 -6.981061 11.607827 32.458617 -0.176330 8.741209 1.487757 -0.230870 -0.372280 -0.366350 18.232695 -9.908440 3.126494 -10.232747 1.472224 -40.636555 2.178943 -9.291983 39.948854 -0.264014 -5.766590 2.099962 -0.003280 0.810630 0.226770 -4.141457 -3.031374 -7.913174 13.070438 -12.412492 23.835298 -6.828984 -10.260331 19.427096 0.154007 -1.423082 -12.006145 -7.317827 -1.250505 39.895028 3.312740 -7.405560 -9.374560 17.460207 -21.971433 1.902222 4.120644 -27.447084 -2.004041 24.852993 -16.570393 -5.178994 -4.337914 2.750347 0.424220 0.352470 -0.232800 0.026970 -17.481263 18.775591 7.156797 -2.497825 12.933622 -12.939883 -76.658533 35.148516 -30.633010 1.831388 -1.365561 -0.472510 0.582820 0.589150 0.042870 
-2.088390 17.500030 0.342170 -6.362344 37.305192 -6.399246 -15.272365 13.577687 2.442651 26.386396 -4.926142 -2.991310 -6.521169 11.182024 31.559786 -0.211068 8.627371 1.542432 -0.312470 -0.484590 -0.422930 18.240661 -9.917475 3.099813 -9.955910 0.875659 -41.284016 1.677686 -9.567804 40.967656 -0.256057 -5.957289 2.052693 -0.064750 0.854180 0.222930 -4.197064 -3.135215 -7.888617 13.951316 -13.045484 24.372468 -6.222808 -11.204850 19.089424 -0.489089 -1.879811 -12.518230 -8.378730 -0.895112 39.504274 3.965840 -7.726030 -8.038700 17.028532 -20.673710 2.430998 4.344628 -25.515958 -3.317473 29.362033 -16.427746 -6.290307 -4.427330 2.755825 0.434480 0.375290 -0.272440 0.005750 -15.853478 17.227602 7.909300 0.344235 8.985296 -13.561953 -91.116462 31.905024 -37.568052 1.880527 -1.466415 -0.506910 0.579540 0.640230 0.038300 
-2.067940 17.477750 0.352050 -6.335589 38.053332 -6.321571 -15.276297 13.649209 2.373905 26.015087 -5.016270 -2.025919 -5.825724 10.556647 30.009851 -0.265235 8.399262 1.661548 -0.366620 -0.562190 -0.457670 18.226639 -9.958844 3.091826 -9.855493 0.258979 -41.935757 0.970060 -9.730882 42.011345 -0.266522 -6.150132 1.994154 -0.099070 0.891910 0.223700 -4.202676 -3.215040 -7.853446 14.895085 -13.570373 25.421679 -6.157501 -11.706070 18.316812 -0.506469 -2.173402 -12.308018 -8.676193 -1.828482 37.227920 3.638340 -8.623220 -7.826600 15.665272 -18.618455 2.914488 2.799331 -24.206839 -5.689770 40.962041 -20.607616 -10.531255 -4.504728 2.761461 0.438310 0.396290 -0.301760 0.002170 -14.502372 15.077595 8.355930 4.391000 4.019819 -14.146477 -104.127333 27.349292 -42.613890 1.909412 -1.645897 -0.539020 0.593310 0.672970 0.034780 
-2.052240 17.456410 0.360440 -6.342151 38.606333 -6.425355 -15.281926 13.726735 2.352323 25.846387 -5.011186 -1.089686 -5.405740 10.153352 28.588528 -0.274395 8.221303 1.759333 -0.404850 -0.622150 -0.483570 18.208819 -9.994594 3.049617 -9.711342 -0.235087 -42.111732 0.291620 -9.697606 42.426796 -0.256679 -6.203943 1.999170 -0.136540 0.902670 0.208370 -4.193288 -3.330287 -7.819943 15.738384 -14.598283 27.011059 -6.585426 -12.405328 17.109360 -0.173346 -3.162792 -12.083146 -10.049242 -2.201834 34.912441 3.547830 -9.293880 -7.633300 13.374943 -16.159066 4.036335 -0.166943 -21.005986 -7.840317 59.652972 -26.239603 -18.847003 -4.534843 2.690479 0.437680 0.397340 -0.329780 0.000780 -12.857295 13.063062 8.157494 7.407460 -0.273350 -14.622418 -114.447343 22.287019 -44.265589 1.929408 -1.820533 -0.555140 0.590110 0.686050 0.028800 
-2.026820 17.435670 0.373570 -6.446494 38.818167 -6.272874 -15.280639 13.726959 2.370157 26.006703 -5.040718 -0.563914 -5.651390 10.126788 27.575791 -0.206140 8.141651 1.839368 -0.447840 -0.668380 -0.518550 18.212862 -9.960376 3.055559 -9.400448 -0.376410 -42.719486 -0.408612 -9.675632 43.213992 -0.270845 -6.279046 2.019523 -0.188990 0.918620 0.170380 -4.202929 -3.422273 -7.826236 16.864661 -15.999205 28.556996 -7.152933 -13.175950 15.172718 0.276344 -4.554080 -12.123241 -12.089502 -2.198479 32.761665 3.939990 -9.775240 -7.485990 10.747362 -13.669461 5.321493 -3.436470 -16.455444 -8.410015 80.826998 -28.853460 -29.419070 -4.488834 2.538898 0.431100 0.381800 -0.342160 0.022210 -11.108390 11.430516 7.646380 9.403421 -4.023737 -15.028419 -123.411363 17.034231 -43.289422 1.958290 -1.965667 -0.562040 0.608980 0.674230 0.046140 
-2.013480 17.421700 0.385690 -6.620593 38.487316 -6.446133 -15.294882 13.742849 2.462157 26.508834 -5.122609 -0.079767 -6.486077 10.465502 27.150474 -0.095420 8.228118 1.856526 -0.487960 -0.705120 -0.558850 18.196936 -9.877825 3.058129 -8.707652 -0.107611 -43.011849 -1.413845 -9.357727 43.996287 -0.284709 -6.292469 2.058704 -0.236440 0.930890 0.129640 -4.119785 -3.614144 -7.872229 17.155550 -17.239642 31.007060 -6.957838 -13.740640 12.770007 0.664862 -5.810017 -12.235827 -13.855176 -2.017299 30.892074 4.619620 -10.021550 -7.156650 7.772205 -11.595400 6.302921 -5.980431 -11.351039 -8.092316 100.938193 -26.162970 -38.570105 -4.419822 2.489326 0.424240 0.359510 -0.349120 0.049380 -8.820681 10.404804 7.026886 9.911504 -7.124026 -15.378621 -129.923826 12.719845 -40.569069 1.985315 -2.073388 -0.567210 0.623440 0.655490 0.068670 
-2.001260 17.402620 0.406000 -6.279274 38.091664 -6.113843 -15.302435 13.721938 2.545803 26.703637 -5.198706 0.032920 -7.544843 10.932725 27.314144 0.006891 8.367324 1.815673 -0.518770 -0.738840 -0.603790 18.195878 -9.794738 3.077733 -8.372283 0.115591 -43.515438 -2.512348 -9.017086 44.767084 -0.287317 -6.336237 2.063795 -0.276090 0.929890 0.109560 -4.072988 -3.758979 -7.926088 17.001895 -18.247754 32.768630 -6.795228 -14.109546 10.301813 0.817985 -6.879469 -12.433917 -15.595563 -1.200639 30.004707 6.191760 -10.217130 -5.949620 5.294678 -9.805567 7.051056 -8.600010 -6.765754 -7.171724 117.241839 -20.682412 -43.800159 -4.354552 2.570474 0.411130 0.340330 -0.361990 0.058840 -6.567181 9.555283 6.441981 9.739064 -9.335058 -15.233791 -134.785272 9.387521 -36.824201 2.013886 -2.174027 -0.556090 0.595830 0.651610 0.085860 
